# xmcd
#
# Track frame offsets:
#	150
#	13418
#	25781
#	40926
#	53067
#	72054
#	86758
#	100419
#	116590
#	130990
#	141436
#
# Disc length: 2078 seconds
#
# Revision: 1
# Processed by: cddbd v1.5.2PL0 Copyright (c) Steve Scherf et al.
# Submitted via: audiograbber 1.83.01
#
DISCID=9a081c0b
DTITLE=Kenny Rogers - Love Or Something Like It
DYEAR=1978
DGENRE=Country
TTITLE0=Love Or Something Like It
TTITLE1=There's A Lot Of Going Around
TTITLE2=Buried Treasures
TTITLE3=Something About Your Song
TTITLE4=Momma's Waiting
TTITLE5=We Could Have Been The Closest Of Friends
TTITLE6=I Could Be So Good For You
TTITLE7=Sail Away
TTITLE8=Even A Fool Would Let Go
TTITLE9=Highway Flyer
TTITLE10=Starting Again
EXTD=
EXTT0=
EXTT1=
EXTT2=
EXTT3=
EXTT4=
EXTT5=
EXTT6=
EXTT7=
EXTT8=
EXTT9=
EXTT10=
PLAYORDER=
